<svg viewBox="0 0 760 210" xmlns="http://www.w3.org/2000/svg" role="img" aria-label="دورة الـ Cubit"><rect x="560" y="30" width="180" height="50" rx="10" fill="var(--surface)" stroke="var(--line)" stroke-width="1.5"/><text x="650.0" y="52.0" text-anchor="middle" font-size="13" fill="var(--ink)" font-weight="600">UI</text><text x="650.0" y="69.0" text-anchor="middle" font-size="11" fill="var(--muted)">button tapped</text><rect x="300" y="30" width="180" height="50" rx="10" fill="var(--accent-soft)" stroke="var(--accent)" stroke-width="1.5"/><text x="390.0" y="52.0" text-anchor="middle" font-size="13" fill="var(--ink)" font-weight="600">Cubit method</text><text x="390.0" y="69.0" text-anchor="middle" font-size="11" fill="var(--muted)">search(query)</text><rect x="300" y="140" width="180" height="50" rx="10" fill="var(--accent)" stroke="var(--accent)" stroke-width="1.5"/><text x="390.0" y="162.0" text-anchor="middle" font-size="13" fill="var(--surface)" font-weight="600">emit(state)</text><text x="390.0" y="179.0" text-anchor="middle" font-size="11" fill="var(--accent-soft)">SearchLoaded</text><rect x="560" y="140" width="180" height="50" rx="10" fill="var(--surface)" stroke="var(--line)" stroke-width="1.5"/><text x="650.0" y="162.0" text-anchor="middle" font-size="13" fill="var(--ink)" font-weight="600">BlocBuilder</text><text x="650.0" y="179.0" text-anchor="middle" font-size="11" fill="var(--muted)">rebuilds the UI</text><line x1="558" y1="55" x2="482" y2="55" stroke="var(--ink)" stroke-width="1.6" marker-end="url(#mk-ink)"/><line x1="390" y1="82" x2="390" y2="138" stroke="var(--ink)" stroke-width="1.6" marker-end="url(#mk-ink)"/><line x1="482" y1="165" x2="558" y2="165" stroke="var(--ink)" stroke-width="1.6" marker-end="url(#mk-ink)"/><line x1="650" y1="138" x2="650" y2="82" stroke="var(--muted)" stroke-width="1.6" stroke-dasharray="6 4" marker-end="url(#mk-mut)"/><text x="520" y="46" text-anchor="middle" font-size="11" fill="var(--muted)">calls</text><text x="400" y="114" text-anchor="start" font-size="11" fill="var(--muted)">awaits use case</text><text x="520" y="158" text-anchor="middle" font-size="11" fill="var(--muted)">new state</text><text x="660" y="114" text-anchor="start" font-size="11" fill="var(--muted)">user sees it</text><rect x="40" y="85" width="180" height="50" rx="10" fill="var(--surface)" stroke="var(--line)" stroke-width="1.5"/><text x="130.0" y="107.0" text-anchor="middle" font-size="13" fill="var(--ink)" font-weight="600">UseCase</text><text x="130.0" y="124.0" text-anchor="middle" font-size="11" fill="var(--muted)">Result&lt;T&gt;</text><line x1="298" y1="72" x2="222" y2="100" stroke="var(--muted)" stroke-width="1.6" marker-end="url(#mk-mut)"/><line x1="222" y1="120" x2="298" y2="150" stroke="var(--muted)" stroke-width="1.6" marker-end="url(#mk-mut)"/></svg>