<svg viewBox="0 0 760 290" xmlns="http://www.w3.org/2000/svg" role="img" aria-label="كل نوع بيانات ليه contract في الـ data layer ومكان تخزين مختلف"><text x="655" y="24" text-anchor="middle" font-size="11" fill="var(--muted)">who uses it</text><text x="400" y="24" text-anchor="middle" font-size="11" fill="var(--muted)">contract (data layer)</text><text x="130" y="24" text-anchor="middle" font-size="11" fill="var(--muted)">on the device</text><rect x="570" y="40" width="170" height="50" rx="10" fill="var(--surface)" stroke="var(--line)" stroke-width="1.5"/><text x="655" y="62" text-anchor="middle" font-size="13" fill="var(--ink)" font-weight="600">LibraryRepositoryImpl</text><text x="655" y="79" text-anchor="middle" font-size="11" fill="var(--muted)">maps rows to Book</text><rect x="320" y="40" width="160" height="50" rx="10" fill="var(--accent-soft)" stroke="var(--accent)" stroke-width="1.5"/><text x="400" y="62" text-anchor="middle" font-size="13" fill="var(--ink)" font-weight="600">LibraryLocalSource</text><text x="400" y="79" text-anchor="middle" font-size="11" fill="var(--muted)">BooksDao + watch</text><rect x="30" y="40" width="200" height="50" rx="10" fill="var(--surface)" stroke="var(--line)" stroke-width="1.5"/><text x="130" y="62" text-anchor="middle" font-size="13" fill="var(--ink)" font-weight="600">drift (SQLite file)</text><text x="130" y="79" text-anchor="middle" font-size="11" fill="var(--muted)">queries, streams, migrations</text><line x1="568" y1="65" x2="482" y2="65" stroke="var(--ink)" stroke-width="1.6" marker-end="url(#mk-ink)"/><line x1="318" y1="65" x2="232" y2="65" stroke="var(--ink)" stroke-width="1.6" marker-end="url(#mk-ink)"/><rect x="570" y="120" width="170" height="50" rx="10" fill="var(--surface)" stroke="var(--line)" stroke-width="1.5"/><text x="655" y="142" text-anchor="middle" font-size="13" fill="var(--ink)" font-weight="600">AuthInterceptor</text><text x="655" y="159" text-anchor="middle" font-size="11" fill="var(--muted)">AuthRepositoryImpl</text><rect x="320" y="120" width="160" height="50" rx="10" fill="var(--accent-soft)" stroke="var(--accent)" stroke-width="1.5"/><text x="400" y="142" text-anchor="middle" font-size="13" fill="var(--ink)" font-weight="600">TokenStore</text><text x="400" y="159" text-anchor="middle" font-size="11" fill="var(--muted)">access + refresh</text><rect x="30" y="120" width="200" height="50" rx="10" fill="var(--surface)" stroke="var(--warn)" stroke-width="1.5"/><text x="130" y="142" text-anchor="middle" font-size="13" fill="var(--ink)" font-weight="600">flutter_secure_storage</text><text x="130" y="159" text-anchor="middle" font-size="11" fill="var(--muted)">Keychain / Keystore, encrypted</text><line x1="568" y1="145" x2="482" y2="145" stroke="var(--ink)" stroke-width="1.6" marker-end="url(#mk-ink)"/><line x1="318" y1="145" x2="232" y2="145" stroke="var(--warn)" stroke-width="1.6" marker-end="url(#mk-warn)"/><rect x="570" y="200" width="170" height="50" rx="10" fill="var(--surface)" stroke="var(--line)" stroke-width="1.5"/><text x="655" y="222" text-anchor="middle" font-size="13" fill="var(--ink)" font-weight="600">SettingsCubit</text><text x="655" y="239" text-anchor="middle" font-size="11" fill="var(--muted)">theme, locale</text><rect x="320" y="200" width="160" height="50" rx="10" fill="var(--accent-soft)" stroke="var(--accent)" stroke-width="1.5"/><text x="400" y="222" text-anchor="middle" font-size="13" fill="var(--ink)" font-weight="600">SettingsStore</text><text x="400" y="239" text-anchor="middle" font-size="11" fill="var(--muted)">a few small values</text><rect x="30" y="200" width="200" height="50" rx="10" fill="var(--surface)" stroke="var(--line)" stroke-width="1.5"/><text x="130" y="222" text-anchor="middle" font-size="13" fill="var(--ink)" font-weight="600">shared_preferences</text><text x="130" y="239" text-anchor="middle" font-size="11" fill="var(--muted)">plain key-value file</text><line x1="568" y1="225" x2="482" y2="225" stroke="var(--ink)" stroke-width="1.6" marker-end="url(#mk-ink)"/><line x1="318" y1="225" x2="232" y2="225" stroke="var(--ink)" stroke-width="1.6" marker-end="url(#mk-ink)"/><text x="380" y="278" text-anchor="middle" font-size="12" fill="var(--accent)" class="ar" direction="rtl" unicode-bidi="embed">محدش بيكلّم الـ storage مباشرة: كل واحد بيكلّم contract</text></svg>
