<svg viewBox="0 0 760 270" xmlns="http://www.w3.org/2000/svg" role="img" aria-label="الـ infinite scroll: الصفحة الجاية بتتطلب قبل آخر الليست"><rect x="300" y="16" width="160" height="80" rx="8" fill="var(--accent-soft)" stroke="var(--accent)" stroke-width="1.4"/><line x1="314" y1="40" x2="446" y2="40" stroke="var(--line)" stroke-width="1"/><line x1="314" y1="56" x2="446" y2="56" stroke="var(--line)" stroke-width="1"/><line x1="314" y1="72" x2="446" y2="72" stroke="var(--line)" stroke-width="1"/><text x="380" y="32" text-anchor="middle" font-size="12" fill="var(--ink)" font-weight="600">page 1</text><rect x="300" y="102" width="160" height="80" rx="8" fill="var(--accent-soft)" stroke="var(--accent)" stroke-width="1.4"/><line x1="314" y1="126" x2="446" y2="126" stroke="var(--line)" stroke-width="1"/><line x1="314" y1="142" x2="446" y2="142" stroke="var(--line)" stroke-width="1"/><line x1="314" y1="158" x2="446" y2="158" stroke="var(--line)" stroke-width="1"/><text x="380" y="118" text-anchor="middle" font-size="12" fill="var(--ink)" font-weight="600">page 2</text><rect x="300" y="188" width="160" height="24" rx="6" fill="var(--surface)" stroke="var(--line)" stroke-width="1.4"/><circle cx="380" cy="200" r="6" fill="none" stroke="var(--muted)" stroke-width="2" stroke-dasharray="10 6"/><rect x="300" y="226" width="160" height="34" rx="8" fill="none" stroke="var(--muted)" stroke-width="1.4" stroke-dasharray="6 4"/><text x="380" y="247" text-anchor="middle" font-size="12" fill="var(--muted)">page 3 (not loaded)</text><rect x="288" y="84" width="184" height="86" rx="10" fill="none" stroke="var(--ink)" stroke-width="2.2"/><text x="278" y="124" text-anchor="end" font-size="12" fill="var(--ink)" font-weight="600">screen</text><text x="278" y="141" text-anchor="end" font-size="11" fill="var(--muted)">what the user sees</text><text x="278" y="204" text-anchor="end" font-size="11" fill="var(--muted)">footer: loading</text><line x1="486" y1="170" x2="486" y2="212" stroke="var(--warn)" stroke-width="1.6"/><line x1="480" y1="170" x2="492" y2="170" stroke="var(--warn)" stroke-width="1.6"/><line x1="480" y1="212" x2="492" y2="212" stroke="var(--warn)" stroke-width="1.6"/><text x="498" y="188" text-anchor="start" font-size="11" fill="var(--warn)" font-weight="600">extentAfter</text><text x="498" y="203" text-anchor="start" font-size="11" fill="var(--warn)">&lt; 500px</text><line x1="572" y1="190" x2="598" y2="160" stroke="var(--warn)" stroke-width="1.6" marker-end="url(#mk-warn)"/><rect x="600" y="112" width="148" height="48" rx="10" fill="var(--accent)" stroke="var(--accent)" stroke-width="1.5"/><text x="674" y="133" text-anchor="middle" font-size="13" fill="#fff" font-weight="600">loadMore()</text><text x="674" y="150" text-anchor="middle" font-size="11" fill="#e8f2fb">page: 3</text><path d="M674 162 C674 240 560 243 464 243" fill="none" stroke="var(--accent)" stroke-width="1.6" stroke-dasharray="6 4" marker-end="url(#mk-acc)"/><text x="600" y="258" text-anchor="middle" font-size="11" fill="var(--accent)">appended below</text><text x="210" y="60" text-anchor="middle" font-size="12" fill="var(--muted)" class="ar" direction="rtl" unicode-bidi="embed">كل صفحة 20 كتاب</text></svg>
