<svg viewBox="0 0 760 340" xmlns="http://www.w3.org/2000/svg" role="img" aria-label="الـ providers في Riverpod وصفات global مافيهاش state، والـ state كلها جوه الـ ProviderContainer اللي الـ ProviderScope بيعمله، والـ providers بتعمل watch لبعض، والـ widgets بتسمع بالـ ref"><text x="116" y="28" text-anchor="middle" font-size="11" fill="var(--muted)" font-weight="600">top-level final declarations</text><text x="405" y="28" text-anchor="middle" font-size="11" fill="var(--accent)" font-weight="600">ProviderContainer · made by ProviderScope</text><text x="672" y="28" text-anchor="middle" font-size="11" fill="var(--muted)" font-weight="600">widgets</text><rect x="16" y="40" width="200" height="232" rx="10" fill="none" stroke="var(--line)" stroke-width="1.5"/><rect x="240" y="40" width="330" height="232" rx="12" fill="none" stroke="var(--accent)" stroke-width="1.5"/><rect x="26" y="57" width="180" height="26" rx="6" fill="var(--surface)" stroke="var(--line)" stroke-width="1.4"/><text x="116" y="74" text-anchor="middle" font-size="10.5" fill="var(--ink)">libraryRepositoryProvider</text><rect x="26" y="97" width="180" height="26" rx="6" fill="var(--surface)" stroke="var(--line)" stroke-width="1.4"/><text x="116" y="114" text-anchor="middle" font-size="10.5" fill="var(--ink)">refreshLibraryProvider</text><rect x="26" y="137" width="180" height="26" rx="6" fill="var(--surface)" stroke="var(--line)" stroke-width="1.4"/><text x="116" y="154" text-anchor="middle" font-size="10.5" fill="var(--ink)">libraryRefreshProvider</text><rect x="26" y="177" width="180" height="26" rx="6" fill="var(--surface)" stroke="var(--line)" stroke-width="1.4"/><text x="116" y="194" text-anchor="middle" font-size="10.5" fill="var(--ink)">libraryBooksProvider</text><rect x="26" y="217" width="180" height="26" rx="6" fill="var(--surface)" stroke="var(--line)" stroke-width="1.4"/><text x="116" y="234" text-anchor="middle" font-size="10.5" fill="var(--ink)">readingGoalProvider</text><line x1="210" y1="70" x2="247" y2="70" stroke="var(--muted)" stroke-width="1.2" stroke-dasharray="3 3" marker-end="url(#mk-mut)"/><line x1="210" y1="110" x2="247" y2="110" stroke="var(--muted)" stroke-width="1.2" stroke-dasharray="3 3" marker-end="url(#mk-mut)"/><line x1="210" y1="150" x2="247" y2="150" stroke="var(--muted)" stroke-width="1.2" stroke-dasharray="3 3" marker-end="url(#mk-mut)"/><line x1="210" y1="190" x2="247" y2="190" stroke="var(--muted)" stroke-width="1.2" stroke-dasharray="3 3" marker-end="url(#mk-mut)"/><line x1="210" y1="230" x2="247" y2="230" stroke="var(--muted)" stroke-width="1.2" stroke-dasharray="3 3" marker-end="url(#mk-mut)"/><rect x="252" y="55" width="270" height="30" rx="6" fill="var(--accent-soft)" stroke="var(--accent)" stroke-width="1.4"/><text x="387" y="74" text-anchor="middle" font-size="10.5" fill="var(--ink)">LibraryRepositoryImpl · keepAlive</text><rect x="252" y="95" width="270" height="30" rx="6" fill="var(--accent-soft)" stroke="var(--accent)" stroke-width="1.4"/><text x="387" y="114" text-anchor="middle" font-size="10.5" fill="var(--ink)">RefreshLibrary</text><rect x="252" y="135" width="270" height="30" rx="6" fill="var(--accent-soft)" stroke="var(--accent)" stroke-width="1.4"/><text x="387" y="154" text-anchor="middle" font-size="10.5" fill="var(--ink)">(isRefreshing: false, failure: null)</text><rect x="252" y="175" width="270" height="30" rx="6" fill="var(--accent-soft)" stroke="var(--accent)" stroke-width="1.4"/><text x="387" y="194" text-anchor="middle" font-size="10.5" fill="var(--ink)">AsyncData(12 books)</text><rect x="252" y="215" width="270" height="30" rx="6" fill="none" stroke="var(--muted)" stroke-width="1.2" stroke-dasharray="4 3"/><text x="387" y="234" text-anchor="middle" font-size="10.5" fill="var(--muted)">disposed · nobody is listening</text><path d="M522 110 H546 V82 H527" fill="none" stroke="var(--accent)" stroke-width="1.4" marker-end="url(#mk-acc)"/><path d="M522 190 H556 V76 H527" fill="none" stroke="var(--accent)" stroke-width="1.4" marker-end="url(#mk-acc)"/><path d="M522 150 H534 V118 H527" fill="none" stroke="var(--accent)" stroke-width="1.4" stroke-dasharray="4 3" marker-end="url(#mk-acc)"/><rect x="600" y="128" width="144" height="84" rx="8" fill="var(--surface)" stroke="var(--line)" stroke-width="1.5"/><text x="672" y="148" text-anchor="middle" font-size="11.5" fill="var(--ink)" font-weight="600">LibraryPage</text><text x="672" y="172" text-anchor="middle" font-size="10" fill="var(--muted)">listen: the SnackBar</text><text x="672" y="196" text-anchor="middle" font-size="10" fill="var(--muted)">watch: the list</text><line x1="600" y1="152" x2="576" y2="152" stroke="var(--accent)" stroke-width="1.4" marker-end="url(#mk-acc)"/><line x1="600" y1="192" x2="576" y2="192" stroke="var(--accent)" stroke-width="1.4" marker-end="url(#mk-acc)"/><rect x="600" y="220" width="144" height="26" rx="6" fill="none" stroke="var(--muted)" stroke-width="1.2" stroke-dasharray="4 3"/><text x="672" y="237" text-anchor="middle" font-size="10" fill="var(--muted)">SettingsPage (closed)</text><text x="116" y="298" text-anchor="middle" font-size="11.5" fill="var(--muted)" class="ar" direction="rtl" unicode-bidi="embed">وصفات بس: مافيهاش state</text><text x="405" y="298" text-anchor="middle" font-size="11.5" fill="var(--ink)" class="ar" direction="rtl" unicode-bidi="embed">الـ state كلها هنا، والأسهم: مين بيعمل watch لمين</text><text x="672" y="298" text-anchor="middle" font-size="11.5" fill="var(--muted)" class="ar" direction="rtl" unicode-bidi="embed">بتسمع بالـ ref</text><text x="405" y="324" text-anchor="middle" font-size="10.5" fill="var(--muted)">dashed arrow = ref.read inside a method · ProviderContainer.test() = a fresh box per test</text></svg>
